<?xml version="1.0" encoding="UTF-8"?>
<!DOCTYPE svg  PUBLIC '-//W3C//DTD SVG 1.1//EN'  'http://www.w3.org/Graphics/SVG/1.1/DTD/svg11.dtd'>
<svg width="719" height="768" version="1.1" viewBox="-1.7339 -1.7339 61.263 65.408" xmlns="http://www.w3.org/2000/svg">
<path d="m54.228 11.987c-0.5725-1.1825-1.235-2.3238-2.0038-3.4l-8.2125 2.9888c0.955 0.9775 1.7575 2.0762 2.4138 3.2512l7.8025-2.84zm-36.303 9.0834-8.215 2.9888c0.105 1.3175 0.3325 2.6188 0.65125 3.8938l7.8038-2.8412c-0.25375-1.32-0.34375-2.68-0.24-4.0412" fill="#c22133"/>
<path d="m36.156 9.6601c1.7088 0.7975 3.1888 1.885 4.4375 3.16l8.2125-2.9888c-2.275-3.1925-5.3738-5.86-9.17-7.6312-11.741-5.475-25.749-0.3775-31.222 11.363-1.7725 3.7988-2.4312 7.8338-2.1212 11.741l8.2138-2.9888c0.13625-1.78 0.57-3.5638 1.3662-5.2738 3.5575-7.6275 12.656-10.938 20.284-7.3813" fill="#db212e"/>
<path d="m44.916 24.668c-0.13125 1.7788-0.58 3.5625-1.3788 5.2738-3.5562 7.6288-12.656 10.939-20.282 7.3825-1.7112-0.79875-3.2025-1.8775-4.4462-3.155l-8.1962 2.9825c2.27 3.1925 5.365 5.8612 9.1638 7.6338 11.741 5.4738 25.746 0.37625 31.221-11.365 1.7738-3.7962 2.4275-7.8312 2.115-11.735l-8.1962 2.9825z" fill="#db212e"/>
<path d="m46.935 14.641-7.8038 2.84c1.45 2.5975 2.135 5.5875 1.91 8.595l8.1962-2.9812c-0.235-2.9412-1.0188-5.8125-2.3025-8.4538m-36.063 13.124-7.8038 2.8425c0.71625 2.845 1.96 5.5488 3.67 7.955l8.195-2.9838c-2.1038-2.16-3.5025-4.8938-4.0612-7.8138" fill="#eb2126"/>
<path d="m53.038 9.823c-0.25875-0.42-0.5275-0.83375-0.81375-1.2362l-8.2125 2.9888c0.36125 0.37 0.69375 0.7625 1.0112 1.165l8.015-2.9175zm-35.145 12.896c-0.02-0.5475-0.0113-1.0975 0.0312-1.6488l-8.215 2.9888c0.0425 0.52625 0.10875 1.0488 0.1875 1.57l7.9962-2.91z" fill="#ad213b"/>
<path d="m53.112 21.686-8.1962 2.9825c-0.0863 1.18-0.31625 2.3625-0.6925 3.525l8.9212-3.2525c0.0638-1.09 0.0537-2.1775-0.0325-3.255m-42.499 15.468c0.63125 0.88875 1.33 1.7362 2.0888 2.5362l8.9225-3.2538c-1.0425-0.6525-1.985-1.4138-2.8162-2.2662l-8.195 2.9838z" fill="#ba2133"/>
<path d="m52.689 54.532v0.74h2.1462v6.5538h0.8125v-6.5538h2.1475v-0.74h-5.1062zm-4.9285 0.73938v2.4175h2v0.74h-2v3.3962h-0.8125v-7.2925h4.2825v0.73875h-3.47zm-3.7178-0.7385h0.8125v7.2938h-0.8125v-7.2938zm-2.9042 7.2929v-3.4388h-3.6262v3.4388h-0.8125v-7.2938h0.8125v3.1162h3.6262v-3.1162h0.8125v7.2938h-0.8125zm-8.6668 0.11463c-0.99 0-1.8762-0.4275-2.4488-1.01l0.5425-0.605c0.55125 0.53125 1.1875 0.87625 1.9375 0.87625 0.96875 0 1.5738-0.48 1.5738-1.2512 0-0.6775-0.40625-1.0625-1.74-1.5425-1.5738-0.5625-2.105-1.0725-2.105-2.125 0-1.1675 0.91625-1.8662 2.2812-1.8662 0.98 0 1.605 0.2925 2.22 0.7825l-0.52125 0.635c-0.53125-0.4375-1.0212-0.6775-1.75-0.6775-1.0012 0-1.4175 0.5-1.4175 1.0738 0 0.605 0.27125 0.9475 1.73 1.47 1.615 0.5825 2.115 1.125 2.115 2.2088 0 1.1462-0.89625 2.0312-2.4175 2.0312m-5.7415-0.11463-2.6775-3.98c-0.1775-0.27125-0.4175-0.63625-0.51125-0.82375 0 0.27125 0.0212 1.1875 0.0212 1.5938v3.21h-1.4388v-7.2938h1.3962l2.585 3.855c0.1775 0.27125 0.41625 0.63625 0.51 0.82375 0-0.27125-0.02-1.1875-0.02-1.595v-3.0838h1.4375v7.2938h-1.3025zm-11.501 0v-7.2938h5.0638v1.4275h-3.605v1.2612h2.095v1.4162h-2.095v1.7612h3.7612v1.4275h-5.22zm-4.1448-2.5836h-1.605v2.5838h-1.4588v-7.2938h3.1888c1.375 0 2.5112 0.76125 2.5112 2.3125 0 1.6888-1.125 2.3975-2.6362 2.3975m0.0738-3.2925h-1.6788v1.875h1.6988c0.6775 0 1.0425-0.31375 1.0425-0.94875s-0.4175-0.92625-1.0625-0.92625m-7.9485 5.9908c-1.9075 0-3.21-1.3962-3.21-3.7512s1.3238-3.7725 3.2312-3.7725c1.8962 0 3.1988 1.3975 3.1988 3.7525s-1.3238 3.7712-3.22 3.7712m-0.01-6.075c-1.0212 0-1.6988 0.82375-1.6988 2.3038s0.70875 2.3225 1.73 2.3225 1.6975-0.8225 1.6975-2.3025-0.7075-2.3238-1.7288-2.3238" fill="#241f21"/>
</svg>
